<?xml version="1.0" standalone="no"?>
<!DOCTYPE svg PUBLIC "-//W3C//DTD SVG 20010904//EN"
 "http://www.w3.org/TR/2001/REC-SVG-20010904/DTD/svg10.dtd">
<svg version="1.0" xmlns="http://www.w3.org/2000/svg"
 width="250.000000pt" height="250.000000pt" viewBox="0 0 250.000000 250.000000"
 preserveAspectRatio="xMidYMid meet">
<metadata>
Created by potrace 1.11, written by Peter Selinger 2001-2013
</metadata>
<g transform="translate(0.000000,250.000000) scale(0.100000,-0.100000)"
fill="#000000" stroke="none">
<path d="M1140 2496 c-3 -2 -27 -6 -55 -9 -131 -12 -316 -74 -448 -150 -300
-172 -517 -459 -598 -791 -33 -136 -43 -314 -25 -459 31 -256 162 -521 354
-713 274 -275 642 -405 1027 -361 347 39 632 205 868 507 83 106 175 312 206
460 6 30 14 66 17 80 12 54 11 298 -2 385 -37 244 -152 477 -326 660 -180 190
-403 315 -658 370 -68 15 -350 32 -360 21z"/>
</g>
</svg>
